<svg width="449" height="123" viewBox="0 0 449 123" fill="none" xmlns="http://www.w3.org/2000/svg">
<g clip-path="url(#clip0_3566_77)">
<path d="M299.49 91.0199H248.85L248.55 112.67C248.46 119.4 241.94 122.47 235.65 122.94C227.88 123.51 219.84 118.35 219.88 109.67L220.15 49.5399C221.55 21.6299 244.06 1.11988 271.39 0.299878C303.86 -0.680122 328.73 22.1899 328.65 52.2699L328.49 111.79C328.47 119.15 320.83 122.92 314.67 122.98C307.16 123.05 299.91 119.38 299.79 111.5L299.48 91.0199H299.49ZM299.51 64.0199L299.29 48.5299C297.32 35.1899 285.88 26.9499 272.59 27.8199C259.3 28.6899 249.26 38.4699 249.01 51.6499L248.77 64.0499L299.52 64.0299L299.51 64.0199Z" fill="#00BCA0"/>
<path d="M271.39 0.299878C303.86 -0.680118 328.73 22.1898 328.65 52.2696L328.49 111.79L328.483 112.132C328.232 119.267 320.734 122.921 314.67 122.98C307.277 123.048 300.137 119.494 299.801 111.866L299.79 111.5L299.48 91.0196H248.85L248.55 112.67L248.541 112.982C248.256 119.495 241.842 122.477 235.65 122.94L235.285 122.963C227.752 123.342 220.088 118.376 219.884 110.074L219.88 109.67L220.15 49.5401C221.55 21.6302 244.06 1.12006 271.39 0.299878ZM327.65 52.2677C327.729 22.8144 303.389 0.33501 271.42 1.29988C244.59 2.10495 222.538 22.2158 221.149 49.5557L220.88 109.675C220.844 117.598 228.199 122.483 235.575 121.942C238.604 121.716 241.62 120.866 243.858 119.328C246.064 117.813 247.51 115.645 247.55 112.656L247.864 90.0196H299.49V91.0186L300.479 91.005L300.79 111.484C300.845 115.073 302.502 117.669 305.023 119.396C307.579 121.145 311.054 122.012 314.66 121.979C317.563 121.95 320.812 121.044 323.311 119.302C325.788 117.575 327.481 115.072 327.49 111.787L327.65 52.2677ZM272.524 26.8223C286.064 25.936 297.851 34.2103 300.176 47.7354L300.279 48.3839L300.289 48.4493L300.504 63.5997L301.93 65.0294L247.75 65.0499L248.01 51.6309L248.03 50.9893C248.6 37.5743 258.974 27.7095 272.524 26.8223ZM299.29 48.5303C297.32 35.1903 285.88 26.9504 272.59 27.8204L271.97 27.8673C258.989 28.9963 249.256 38.6756 249.01 51.6495L248.771 64.0499L299.52 64.0303L299.51 64.0196L299.29 48.5303Z" fill="#0C6954"/>
<path d="M344 40.5005C342.68 29.9605 343.03 19.7705 343.89 9.78052C344.43 3.49052 352.11 0.550516 357.22 0.340516C366.16 -0.0294838 371.52 6.08052 371.57 14.5605L371.68 36.0105C371.75 49.3905 383.45 57.5505 396.39 57.4505C409.33 57.3505 418.39 49.5205 420.02 36.8305L420.67 10.7905C420.83 4.23052 428.08 0.490516 433.99 0.270516C439.26 0.0705162 447.07 3.28052 447.69 9.91052C448.57 19.4505 448.88 29.4605 447.8 39.0705C445.37 60.6505 430.16 78.2105 409.62 84.2505L409.66 109.511C409.67 116.881 404.17 123.081 396.3 122.591C389.82 123.971 381.72 119.601 381.64 112.751L381.3 84.5505C361.62 78.9905 346.7 61.8805 344.02 40.5005H344Z" fill="#00BCA0"/>
<path d="M433.99 0.270505C439.26 0.0706402 447.07 3.28049 447.691 9.91015C448.571 19.4501 448.88 29.4604 447.8 39.0703C445.37 60.6503 430.16 78.211 409.62 84.251L409.66 109.511C409.67 116.881 404.17 123.081 396.3 122.591C389.82 123.971 381.72 119.601 381.64 112.751L381.3 84.5508C361.62 78.9908 346.7 61.8808 344.02 40.501H344L343.881 39.5137C342.702 29.324 343.057 19.4582 343.89 9.78027C344.413 3.68708 351.637 0.737552 356.734 0.368161L357.22 0.340817C366.16 -0.0291825 371.521 6.08054 371.571 14.5605L371.68 36.0107C371.75 49.3905 383.45 57.5501 396.39 57.4502C409.33 57.3502 418.39 49.5201 420.02 36.8301L420.67 10.79C420.826 4.43519 427.634 0.727196 433.433 0.301755L433.99 0.270505ZM434.029 1.26953C431.247 1.37306 428.144 2.31027 425.743 3.97461C423.354 5.63132 421.74 7.94118 421.67 10.8145L421.02 36.8555L421.019 36.9072L421.012 36.958C420.17 43.5154 417.396 48.88 413.103 52.6162C408.811 56.3509 403.071 58.3986 396.398 58.4502C383.095 58.5529 370.754 50.1216 370.68 36.0156L370.571 14.5664L370.551 13.8174C370.382 10.1138 369.121 7.00505 367.011 4.82812C364.77 2.51647 361.484 1.16521 357.262 1.33984C354.85 1.43899 351.816 2.18781 349.349 3.6416C346.962 5.04792 345.23 7.02954 344.912 9.61425L344.887 9.86621C344.054 19.5455 343.705 29.37 344.887 39.501H344.903L345.012 40.376C347.602 61.0349 361.83 77.6133 380.671 83.3242L381.573 83.5879L382.291 83.791L382.64 112.738C382.675 115.735 384.461 118.261 387.1 119.908C389.746 121.56 393.128 122.243 396.092 121.612L396.226 121.584L396.363 121.593C403.577 122.042 408.67 116.387 408.66 109.512L408.619 83.5029L409.338 83.291C429.502 77.3616 444.423 60.1284 446.807 38.959C447.876 29.4419 447.571 19.5061 446.695 10.0039L446.664 9.7334C446.307 6.96501 444.503 4.8406 442.072 3.38769C439.551 1.88199 436.473 1.17688 434.029 1.26953Z" fill="#0C6954"/>
<path d="M86.5998 109.749C75.8898 119.449 62.9698 122.669 49.0598 122.939C32.0798 123.259 15.3798 117.879 4.16981 104.949C-0.160185 99.959 -1.20018 92.959 1.40981 87.419C5.86981 80.869 13.1798 78.509 20.0798 82.079C35.0698 101.109 67.5498 98.549 67.2898 85.449C67.2198 82.199 64.4698 79.259 60.6498 78.309L35.9998 72.199C28.6498 70.379 21.9198 67.899 15.9598 63.389C1.75982 52.649 -1.63019 33.459 8.44981 18.559C29.4098 -12.421 88.6998 0.329016 89.2498 20.989C89.3698 25.569 88.0098 29.629 84.2998 32.639C79.8598 36.239 74.0598 36.359 69.3298 33.159C59.4598 26.489 46.0098 23.889 35.9698 30.119C33.0698 31.919 31.8498 34.759 32.1198 37.759C33.1398 49.289 62.3898 46.079 81.0398 58.089C89.7098 63.679 95.6198 72.029 96.7598 81.099C98.1398 92.069 94.8898 102.259 86.6198 109.759L86.5998 109.749Z" fill="#00BCA0"/>
<path d="M8.45023 18.5584C29.4105 -12.4209 88.7001 0.329238 89.25 20.9891C89.37 25.5689 88.0097 29.6286 84.2999 32.6385C79.9986 36.126 74.4211 36.3479 69.7764 33.449L69.3301 33.159C59.4601 26.489 46.0098 23.889 35.9698 30.119L35.7032 30.2908C32.9953 32.0967 31.8587 34.8524 32.1202 37.7586C33.1402 49.2886 62.3901 46.0787 81.0401 58.0886C89.7099 63.6785 95.6197 72.0286 96.7598 81.0984C98.1398 92.0682 94.89 102.259 86.6202 109.758L86.5997 109.749C75.8897 119.449 62.9696 122.669 49.0596 122.939L48.2637 122.95C31.8242 123.087 15.7238 117.847 4.69925 105.549L4.16996 104.949C-0.0247669 100.115 -1.13204 93.3941 1.17582 87.9421L1.41019 87.4187C5.8702 80.8688 13.1802 78.5089 20.0801 82.0788C35.0701 101.108 67.5497 98.5487 67.2901 85.4489C67.2201 82.1989 64.4695 79.2583 60.6495 78.3083L36 72.199C28.8796 70.4358 22.3409 68.053 16.5205 63.8054L15.96 63.3884C1.98196 52.8163 -1.52136 34.0566 7.98734 19.2606L8.45023 18.5584ZM56.3955 1.4032C39.0633 -0.474827 19.4622 4.06703 9.27836 19.119C-0.499134 33.5718 2.78117 52.1675 16.5635 62.5916C22.0079 66.7113 28.1339 69.1111 34.8819 70.8816L36.2403 71.2283L60.8907 77.3386H60.8916C64.8912 78.3334 68.007 81.4054 68.2725 85.071L68.2901 85.4275V85.779C68.2199 89.3757 65.9535 92.1621 62.6133 94.0007C59.1771 95.892 54.4896 96.864 49.3936 96.8122C39.2663 96.7093 27.1684 92.5542 19.4375 82.8767C13.1258 79.7161 6.46199 81.8321 2.28226 87.9148C-0.106696 93.0625 0.855392 99.6039 4.92484 104.294H4.92582C15.8905 116.94 32.2694 122.255 49.0401 121.939L50.3282 121.905C63.5955 121.466 75.7861 118.194 85.9288 109.007L86.4356 108.549L86.4473 108.554C94.0824 101.342 97.0829 91.679 95.7676 81.2234C94.7061 72.778 89.3255 64.9014 81.2842 59.449L80.4981 58.9295C71.3603 53.0452 59.5999 50.8766 49.7549 48.7205C44.887 47.6544 40.4396 46.5794 37.1426 45.0144C33.8364 43.445 31.4258 41.2521 31.1241 37.8484L31.1006 37.534C30.9102 34.2915 32.3065 31.2158 35.4424 29.2694C45.9421 22.7541 59.8354 25.5355 69.8897 32.3299L69.8907 32.3309C74.273 35.2954 79.5881 35.1717 83.67 31.8621L83.9834 31.5994C87.0601 28.9464 88.2813 25.4595 88.2569 21.4207L88.25 21.0155C88.126 16.3543 84.6693 11.9381 78.8213 8.39146C73.0089 4.86648 65.0386 2.33974 56.3955 1.4032Z" fill="#0C6954"/>
<path d="M195.169 121.38C191.959 121.82 188.529 122.51 185.739 122.5L129.379 122.35C122.809 122.33 115.109 117.78 115.109 110.75V11.5397C115.109 4.6297 122.789 0.359704 128.609 0.0197039C134.429 -0.320296 142.539 3.7597 142.569 10.7197L142.969 94.1197L191.579 94.2597C198.989 94.2797 204.629 99.1097 205.689 105.51C206.829 112.41 203.299 120.26 195.169 121.37V121.38Z" fill="#00BCA0"/>
<path d="M128.609 0.0197025C134.429 -0.320292 142.539 3.7599 142.569 10.7199L142.97 94.1203L191.579 94.2599C198.989 94.2799 204.629 99.1099 205.689 105.51C206.829 112.41 203.299 120.26 195.169 121.37V121.38C191.959 121.82 188.529 122.51 185.739 122.5L129.379 122.35C122.912 122.33 115.35 117.921 115.115 111.077L115.109 110.75V11.5402C115.109 4.63021 122.789 0.359702 128.609 0.0197025ZM116.109 110.75C116.109 113.864 117.808 116.488 120.373 118.373C122.946 120.265 126.307 121.34 129.383 121.35L185.742 121.5C188.204 121.509 191.154 120.955 194.169 120.513V120.497L195.034 120.379C202.194 119.402 205.57 112.658 204.791 106.288L204.703 105.673C203.729 99.7912 198.536 95.2789 191.577 95.2599L141.975 95.1174L141.569 10.7248C141.556 7.6761 139.781 5.18864 137.204 3.46306C134.617 1.73079 131.349 0.86119 128.668 1.01775C125.949 1.17656 122.762 2.2636 120.274 4.11834C117.795 5.96705 116.109 8.49437 116.109 11.5402V110.75Z" fill="#0C6954"/>
</g>
<defs>
<clipPath id="clip0_3566_77">
<rect width="448.48" height="122.98" fill="white"/>
</clipPath>
</defs>
</svg>
